<svg xmlns="http://www.w3.org/2000/svg" width="248" height="72" viewBox="0 0 248 72">
  <g id="_404" data-name="404" transform="translate(-912 -368)">
    <rect id="Rectangle_3383" data-name="Rectangle 3383" width="24" height="24" transform="translate(912 368)" fill="#fff"/>
    <rect id="Rectangle_3389" data-name="Rectangle 3389" width="24" height="24" transform="translate(1000 416)" fill="#fff"/>
    <rect id="Rectangle_3390" data-name="Rectangle 3390" width="24" height="24" transform="translate(1136 392)" fill="#fff"/>
    <rect id="Rectangle_3385" data-name="Rectangle 3385" width="24" height="24" transform="translate(960 392)" fill="#f5f5f5"/>
    <rect id="Rectangle_3391" data-name="Rectangle 3391" width="24" height="24" transform="translate(1048 368)" fill="#f5f5f5"/>
    <rect id="Rectangle_3392" data-name="Rectangle 3392" width="24" height="24" transform="translate(1088 392)" fill="#f5f5f5"/>
    <rect id="Rectangle_3386" data-name="Rectangle 3386" width="24" height="24" transform="translate(912 392)" fill="#f0f0f0"/>
    <rect id="Rectangle_3393" data-name="Rectangle 3393" width="24" height="24" transform="translate(1024 368)" fill="#f0f0f0"/>
    <rect id="Rectangle_3394" data-name="Rectangle 3394" width="24" height="24" transform="translate(1136 416)" fill="#f0f0f0"/>
    <rect id="Rectangle_3401" data-name="Rectangle 3401" width="24" height="24" transform="translate(1048 392)" fill="#f0f0f0"/>
    <rect id="Rectangle_3387" data-name="Rectangle 3387" width="24" height="24" transform="translate(960 416)" fill="#ebebeb"/>
    <rect id="Rectangle_3402" data-name="Rectangle 3402" width="24" height="24" transform="translate(1000 368)" fill="#ebebeb"/>
    <rect id="Rectangle_3395" data-name="Rectangle 3395" width="24" height="24" transform="translate(1088 368)" fill="#ebebeb"/>
    <rect id="Rectangle_3396" data-name="Rectangle 3396" width="24" height="24" transform="translate(1024 416)" fill="#ebebeb"/>
    <rect id="Rectangle_3388" data-name="Rectangle 3388" width="24" height="24" transform="translate(936 392)" fill="#e6e6e6"/>
    <rect id="Rectangle_3397" data-name="Rectangle 3397" width="24" height="24" transform="translate(1048 416)" fill="#e6e6e6"/>
    <rect id="Rectangle_3398" data-name="Rectangle 3398" width="24" height="24" transform="translate(1136 368)" fill="#e6e6e6"/>
    <rect id="Rectangle_3384" data-name="Rectangle 3384" width="24" height="24" transform="translate(960 368)" fill="#fafafa"/>
    <rect id="Rectangle_3399" data-name="Rectangle 3399" width="24" height="24" transform="translate(1000 392)" fill="#fafafa"/>
    <rect id="Rectangle_3400" data-name="Rectangle 3400" width="24" height="24" transform="translate(1112 392)" fill="#fafafa"/>
  </g>
</svg>
