<svg xmlns="http://www.w3.org/2000/svg" width="104" height="104" viewBox="0 0 104 104">
  <g id="pixel" opacity="0.6">
    <rect id="Rectangle_4198" data-name="Rectangle 4198" width="8" height="8" transform="translate(40 40)" fill="#fff" opacity="0.1"/>
    <rect id="Rectangle_4185" data-name="Rectangle 4185" width="8" height="8" transform="translate(40 32)" fill="#fff" opacity="0.1"/>
    <rect id="Rectangle_4178" data-name="Rectangle 4178" width="8" height="8" transform="translate(8 24)" fill="#fff" opacity="0.1"/>
    <rect id="Rectangle_4216" data-name="Rectangle 4216" width="8" height="8" transform="translate(80 48)" fill="#fff" opacity="0.1"/>
    <rect id="Rectangle_4280" data-name="Rectangle 4280" width="8" height="8" transform="translate(48 88)" fill="#fff" opacity="0.1"/>
    <rect id="Rectangle_4208" data-name="Rectangle 4208" width="8" height="8" transform="translate(16 48)" fill="#fff" opacity="0.1"/>
    <rect id="Rectangle_4195" data-name="Rectangle 4195" width="8" height="8" transform="translate(16 40)" fill="#fff" opacity="0.02"/>
    <rect id="Rectangle_4255" data-name="Rectangle 4255" width="8" height="8" transform="translate(16 72)" fill="#fff" opacity="0.07"/>
    <rect id="Rectangle_4225" data-name="Rectangle 4225" width="8" height="8" transform="translate(48 56)" fill="#fff" opacity="0.07"/>
    <rect id="Rectangle_4170" data-name="Rectangle 4170" width="8" height="8" transform="translate(80 24)" fill="#fff" opacity="0.07"/>
    <rect id="Rectangle_4129" data-name="Rectangle 4129" width="8" height="8" transform="translate(8)" fill="#fff" opacity="0.02"/>
    <rect id="Rectangle_4152" data-name="Rectangle 4152" width="8" height="8" transform="translate(8 8)" fill="#fff" opacity="0.06"/>
    <rect id="Rectangle_4174" data-name="Rectangle 4174" width="8" height="8" transform="translate(40 24)" fill="#fff" opacity="0.06"/>
    <rect id="Rectangle_4209" data-name="Rectangle 4209" width="8" height="8" transform="translate(24 48)" fill="#fff" opacity="0.06"/>
    <rect id="Rectangle_4295" data-name="Rectangle 4295" width="8" height="8" transform="translate(88 96)" fill="#fff" opacity="0.06"/>
    <rect id="Rectangle_4165" data-name="Rectangle 4165" width="8" height="8" transform="translate(8 16)" fill="#fff" opacity="0.03"/>
    <rect id="Rectangle_4130" data-name="Rectangle 4130" width="8" height="8" transform="translate(16)" fill="#fff" opacity="0.05"/>
    <rect id="Rectangle_4207" data-name="Rectangle 4207" width="8" height="8" transform="translate(8 48)" fill="#fff" opacity="0.05"/>
    <rect id="Rectangle_4270" data-name="Rectangle 4270" width="8" height="8" transform="translate(48 80)" fill="#fff" opacity="0.05"/>
    <rect id="Rectangle_4249" data-name="Rectangle 4249" width="8" height="8" transform="translate(64 72)" fill="#fff" opacity="0.05"/>
    <rect id="Rectangle_4171" data-name="Rectangle 4171" width="8" height="8" transform="translate(88 24)" fill="#fff" opacity="0.05"/>
    <rect id="Rectangle_4286" data-name="Rectangle 4286" width="8" height="8" transform="translate(96 88)" fill="#fff" opacity="0.05"/>
    <rect id="Rectangle_4253" data-name="Rectangle 4253" width="8" height="8" transform="translate(32 72)" fill="#fff" opacity="0.05"/>
    <rect id="Rectangle_4177" data-name="Rectangle 4177" width="8" height="8" transform="translate(16 24)" fill="#fff" opacity="0.05"/>
    <rect id="Rectangle_4254" data-name="Rectangle 4254" width="8" height="8" transform="translate(24 72)" fill="#fff" opacity="0.05"/>
    <rect id="Rectangle_4234" data-name="Rectangle 4234" width="8" height="8" transform="translate(24 64)" fill="#fff" opacity="0.05"/>
    <rect id="Rectangle_4168" data-name="Rectangle 4168" width="8" height="8" transform="translate(64 24)" fill="#fff" opacity="0.05"/>
    <rect id="Rectangle_4151" data-name="Rectangle 4151" width="8" height="8" transform="translate(16 8)" fill="#fff" opacity="0.09"/>
    <rect id="Rectangle_4230" data-name="Rectangle 4230" width="8" height="8" transform="translate(88 56)" fill="#fff" opacity="0.09"/>
    <rect id="Rectangle_4221" data-name="Rectangle 4221" width="8" height="8" transform="translate(16 56)" fill="#fff" opacity="0.09"/>
    <rect id="Rectangle_4210" data-name="Rectangle 4210" width="8" height="8" transform="translate(32 48)" fill="#fff" opacity="0.09"/>
    <rect id="Rectangle_4164" data-name="Rectangle 4164" width="8" height="8" transform="translate(16 16)" fill="#fff" opacity="0.01"/>
    <rect id="Rectangle_4292" data-name="Rectangle 4292" width="8" height="8" transform="translate(64 96)" fill="#fff" opacity="0.01"/>
    <rect id="Rectangle_4213" data-name="Rectangle 4213" width="8" height="8" transform="translate(56 48)" fill="#fff" opacity="0.01"/>
    <rect id="Rectangle_4267" data-name="Rectangle 4267" width="8" height="8" transform="translate(24 80)" fill="#fff" opacity="0.01"/>
    <rect id="Rectangle_4131" data-name="Rectangle 4131" width="8" height="8" transform="translate(24)" fill="#fff" opacity="0.08"/>
    <rect id="Rectangle_4188" data-name="Rectangle 4188" width="8" height="8" transform="translate(64 32)" fill="#fff" opacity="0.08"/>
    <rect id="Rectangle_4294" data-name="Rectangle 4294" width="8" height="8" transform="translate(80 96)" fill="#fff" opacity="0.08"/>
    <rect id="Rectangle_4181" data-name="Rectangle 4181" width="8" height="8" transform="translate(8 32)" fill="#fff" opacity="0.08"/>
    <rect id="Rectangle_4278" data-name="Rectangle 4278" width="8" height="8" transform="translate(32 88)" fill="#fff" opacity="0.08"/>
    <rect id="Rectangle_4250" data-name="Rectangle 4250" width="8" height="8" transform="translate(56 72)" fill="#fff" opacity="0.08"/>
    <rect id="Rectangle_4236" data-name="Rectangle 4236" width="8" height="8" transform="translate(16 64)" fill="#fff" opacity="0.08"/>
    <rect id="Rectangle_4238" data-name="Rectangle 4238" width="8" height="8" transform="translate(8 64)" fill="#fff" opacity="0.04"/>
    <rect id="Rectangle_4190" data-name="Rectangle 4190" width="8" height="8" transform="translate(80 32)" fill="#fff" opacity="0.08"/>
    <rect id="Rectangle_4256" data-name="Rectangle 4256" width="8" height="8" transform="translate(8 72)" fill="#fff" opacity="0.08"/>
    <rect id="Rectangle_4176" data-name="Rectangle 4176" width="8" height="8" transform="translate(24 24)" fill="#fff" opacity="0.08"/>
    <rect id="Rectangle_4150" data-name="Rectangle 4150" width="8" height="8" transform="translate(24 8)" fill="#fff" opacity="0.04"/>
    <rect id="Rectangle_4202" data-name="Rectangle 4202" width="8" height="8" transform="translate(72 40)" fill="#fff" opacity="0.04"/>
    <rect id="Rectangle_4288" data-name="Rectangle 4288" width="8" height="8" transform="translate(32 96)" fill="#fff" opacity="0.04"/>
    <rect id="Rectangle_4163" data-name="Rectangle 4163" width="8" height="8" transform="translate(24 16)" fill="#fff" opacity="0.08"/>
    <rect id="Rectangle_4228" data-name="Rectangle 4228" width="8" height="8" transform="translate(72 56)" fill="#fff" opacity="0.08"/>
    <rect id="Rectangle_4196" data-name="Rectangle 4196" width="8" height="8" transform="translate(24 40)" fill="#fff" opacity="0.08"/>
    <rect id="Rectangle_4132" data-name="Rectangle 4132" width="8" height="8" transform="translate(32)" fill="#fff" opacity="0.03"/>
    <rect id="Rectangle_4147" data-name="Rectangle 4147" width="8" height="8" transform="translate(32 8)" fill="#fff" opacity="0.07"/>
    <rect id="Rectangle_4248" data-name="Rectangle 4248" width="8" height="8" transform="translate(72 72)" fill="#fff" opacity="0.07"/>
    <rect id="Rectangle_4154" data-name="Rectangle 4154" width="8" height="8" transform="translate(32 16)" fill="#fff" opacity="0.04"/>
    <rect id="Rectangle_4172" data-name="Rectangle 4172" width="8" height="8" transform="translate(96 24)" fill="#fff" opacity="0.04"/>
    <rect id="Rectangle_4133" data-name="Rectangle 4133" width="8" height="8" transform="translate(40)" fill="#fff" opacity="0.06"/>
    <rect id="Rectangle_4212" data-name="Rectangle 4212" width="8" height="8" transform="translate(48 48)" fill="#fff" opacity="0.06"/>
    <rect id="Rectangle_4148" data-name="Rectangle 4148" width="8" height="8" transform="translate(40 8)" fill="#fff" opacity="0.02"/>
    <rect id="Rectangle_4155" data-name="Rectangle 4155" width="8" height="8" transform="translate(40 16)" fill="#fff" opacity="0.1"/>
    <rect id="Rectangle_4296" data-name="Rectangle 4296" width="8" height="8" transform="translate(96 96)" fill="#fff" opacity="0.1"/>
    <rect id="Rectangle_4252" data-name="Rectangle 4252" width="8" height="8" transform="translate(40 72)" fill="#fff" opacity="0.1"/>
    <rect id="Rectangle_4194" data-name="Rectangle 4194" width="8" height="8" transform="translate(8 40)" fill="#fff" opacity="0.1"/>
    <rect id="Rectangle_4276" data-name="Rectangle 4276" width="8" height="8" transform="translate(96 80)" fill="#fff" opacity="0.1"/>
    <rect id="Rectangle_4134" data-name="Rectangle 4134" width="8" height="8" transform="translate(48)" fill="#fff" opacity="0.01"/>
    <rect id="Rectangle_4149" data-name="Rectangle 4149" width="8" height="8" transform="translate(48 8)" fill="#fff" opacity="0.07"/>
    <rect id="Rectangle_4156" data-name="Rectangle 4156" width="8" height="8" transform="translate(48 16)" fill="#fff" opacity="0.03"/>
    <rect id="Rectangle_4231" data-name="Rectangle 4231" width="8" height="8" transform="translate(96 56)" fill="#fff" opacity="0.03"/>
    <rect id="Rectangle_4135" data-name="Rectangle 4135" width="8" height="8" transform="translate(56)" fill="#fff" opacity="0.03"/>
    <rect id="Rectangle_4192" data-name="Rectangle 4192" width="8" height="8" transform="translate(96 32)" fill="#fff" opacity="0.03"/>
    <rect id="Rectangle_4167" data-name="Rectangle 4167" width="8" height="8" transform="translate(56 24)" fill="#fff" opacity="0.03"/>
    <rect id="Rectangle_4293" data-name="Rectangle 4293" width="8" height="8" transform="translate(72 96)" fill="#fff" opacity="0.03"/>
    <rect id="Rectangle_4146" data-name="Rectangle 4146" width="8" height="8" transform="translate(56 8)" fill="#fff" opacity="0.1"/>
    <rect id="Rectangle_4215" data-name="Rectangle 4215" width="8" height="8" transform="translate(72 48)" fill="#fff" opacity="0.1"/>
    <rect id="Rectangle_4187" data-name="Rectangle 4187" width="8" height="8" transform="translate(56 32)" fill="#fff" opacity="0.1"/>
    <rect id="Rectangle_4157" data-name="Rectangle 4157" width="8" height="8" transform="translate(56 16)" fill="#fff" opacity="0.05"/>
    <rect id="Rectangle_4245" data-name="Rectangle 4245" width="8" height="8" transform="translate(96 72)" fill="#fff" opacity="0.05"/>
    <rect id="Rectangle_4204" data-name="Rectangle 4204" width="8" height="8" transform="translate(88 40)" fill="#fff" opacity="0.05"/>
    <rect id="Rectangle_4136" data-name="Rectangle 4136" width="8" height="8" transform="translate(64)" fill="#fff" opacity="0.05"/>
    <rect id="Rectangle_4184" data-name="Rectangle 4184" width="8" height="8" transform="translate(32 32)" fill="#fff" opacity="0.05"/>
    <rect id="Rectangle_4144" data-name="Rectangle 4144" width="8" height="8" transform="translate(64 8)" fill="#fff" opacity="0.01"/>
    <rect id="Rectangle_4158" data-name="Rectangle 4158" width="8" height="8" transform="translate(64 16)" fill="#fff" opacity="0.09"/>
    <rect id="Rectangle_4232" data-name="Rectangle 4232" width="8" height="8" transform="translate(40 64)" fill="#fff" opacity="0.09"/>
    <rect id="Rectangle_4283" data-name="Rectangle 4283" width="8" height="8" transform="translate(72 88)" fill="#fff" opacity="0.09"/>
    <rect id="Rectangle_4268" data-name="Rectangle 4268" width="8" height="8" transform="translate(32 80)" fill="#fff" opacity="0.09"/>
    <rect id="Rectangle_4224" data-name="Rectangle 4224" width="8" height="8" transform="translate(40 56)" fill="#fff" opacity="0.09"/>
    <rect id="Rectangle_4197" data-name="Rectangle 4197" width="8" height="8" transform="translate(32 40)" fill="#fff" opacity="0.09"/>
    <rect id="Rectangle_4137" data-name="Rectangle 4137" width="8" height="8" transform="translate(72)" fill="#fff" opacity="0.02"/>
    <rect id="Rectangle_4200" data-name="Rectangle 4200" width="8" height="8" transform="translate(56 40)" fill="#fff" opacity="0.02"/>
    <rect id="Rectangle_4284" data-name="Rectangle 4284" width="8" height="8" transform="translate(80 88)" fill="#fff" opacity="0.02"/>
    <rect id="Rectangle_4189" data-name="Rectangle 4189" width="8" height="8" transform="translate(72 32)" fill="#fff" opacity="0.02"/>
    <rect id="Rectangle_4175" data-name="Rectangle 4175" width="8" height="8" transform="translate(32 24)" fill="#fff" opacity="0.02"/>
    <rect id="Rectangle_4290" data-name="Rectangle 4290" width="8" height="8" transform="translate(48 96)" fill="#fff" opacity="0.02"/>
    <rect id="Rectangle_4222" data-name="Rectangle 4222" width="8" height="8" transform="translate(24 56)" fill="#fff" opacity="0.02"/>
    <rect id="Rectangle_4199" data-name="Rectangle 4199" width="8" height="8" transform="translate(48 40)" fill="#fff" opacity="0.02"/>
    <rect id="Rectangle_4271" data-name="Rectangle 4271" width="8" height="8" transform="translate(56 80)" fill="#fff" opacity="0.02"/>
    <rect id="Rectangle_4145" data-name="Rectangle 4145" width="8" height="8" transform="translate(72 8)" fill="#fff" opacity="0.08"/>
    <rect id="Rectangle_4227" data-name="Rectangle 4227" width="8" height="8" transform="translate(64 56)" fill="#fff" opacity="0.04"/>
    <rect id="Rectangle_4226" data-name="Rectangle 4226" width="8" height="8" transform="translate(56 56)" fill="#fff" opacity="0.08"/>
    <rect id="Rectangle_4279" data-name="Rectangle 4279" width="8" height="8" transform="translate(40 88)" fill="#fff" opacity="0.08"/>
    <rect id="Rectangle_4218" data-name="Rectangle 4218" width="8" height="8" transform="translate(96 48)" fill="#fff" opacity="0.08"/>
    <rect id="Rectangle_4159" data-name="Rectangle 4159" width="8" height="8" transform="translate(72 16)" fill="#fff" opacity="0.01"/>
    <rect id="Rectangle_4138" data-name="Rectangle 4138" width="8" height="8" transform="translate(80)" fill="#fff" opacity="0.09"/>
    <rect id="Rectangle_4141" data-name="Rectangle 4141" width="8" height="8" transform="translate(80 8)" fill="#fff" opacity="0.04"/>
    <rect id="Rectangle_4160" data-name="Rectangle 4160" width="8" height="8" transform="translate(80 16)" fill="#fff" opacity="0.07"/>
    <rect id="Rectangle_4282" data-name="Rectangle 4282" width="8" height="8" transform="translate(64 88)" fill="#fff" opacity="0.07"/>
    <rect id="Rectangle_4139" data-name="Rectangle 4139" width="8" height="8" transform="translate(88)" fill="#fff" opacity="0.04"/>
    <rect id="Rectangle_4142" data-name="Rectangle 4142" width="8" height="8" transform="translate(88 8)" fill="#fff" opacity="0.08"/>
    <rect id="Rectangle_4128" data-name="Rectangle 4128" width="8" height="8" fill="#fff" opacity="0.1"/>
    <rect id="Rectangle_4258" data-name="Rectangle 4258" width="8" height="8" transform="translate(0 80)" fill="#fff" opacity="0.04"/>
    <rect id="Rectangle_4261" data-name="Rectangle 4261" width="8" height="8" transform="translate(8 80)" fill="#fff" opacity="0.06"/>
    <rect id="Rectangle_4264" data-name="Rectangle 4264" width="8" height="8" transform="translate(16 80)" fill="#fff" opacity="0.03"/>
    <rect id="Rectangle_4259" data-name="Rectangle 4259" width="8" height="8" transform="translate(0 88)" fill="#fff" opacity="0.07"/>
    <rect id="Rectangle_4262" data-name="Rectangle 4262" width="8" height="8" transform="translate(8 88)" fill="#fff" opacity="0.02"/>
    <rect id="Rectangle_4265" data-name="Rectangle 4265" width="8" height="8" transform="translate(16 88)" fill="#fff" opacity="0.07"/>
    <rect id="Rectangle_4260" data-name="Rectangle 4260" width="8" height="8" transform="translate(0 96)" fill="#fff" opacity="0.03"/>
    <rect id="Rectangle_4263" data-name="Rectangle 4263" width="8" height="8" transform="translate(8 96)" fill="#fff" opacity="0.05"/>
    <rect id="Rectangle_4266" data-name="Rectangle 4266" width="8" height="8" transform="translate(16 96)" fill="#fff" opacity="0.08"/>
    <rect id="Rectangle_4153" data-name="Rectangle 4153" width="8" height="8" transform="translate(0 8)" fill="#fff" opacity="0.02"/>
    <rect id="Rectangle_4166" data-name="Rectangle 4166" width="8" height="8" transform="translate(0 16)" fill="#fff" opacity="0.07"/>
    <rect id="Rectangle_4193" data-name="Rectangle 4193" width="8" height="8" transform="translate(0 40)" fill="#fff" opacity="0.08"/>
    <rect id="Rectangle_4237" data-name="Rectangle 4237" width="8" height="8" transform="translate(0 64)" fill="#fff" opacity="0.1"/>
    <rect id="Rectangle_4206" data-name="Rectangle 4206" width="8" height="8" transform="translate(0 48)" fill="#fff" opacity="0.02"/>
    <rect id="Rectangle_4179" data-name="Rectangle 4179" width="8" height="8" transform="translate(0 24)" fill="#fff" opacity="0.03"/>
    <rect id="Rectangle_4180" data-name="Rectangle 4180" width="8" height="8" transform="translate(0 32)" fill="#fff" opacity="0.1"/>
    <rect id="Rectangle_4219" data-name="Rectangle 4219" width="8" height="8" transform="translate(0 56)" fill="#fff" opacity="0.01"/>
    <rect id="Rectangle_4257" data-name="Rectangle 4257" width="8" height="8" transform="translate(0 72)" fill="#fff" opacity="0.08"/>
    <rect id="Rectangle_4247" data-name="Rectangle 4247" width="8" height="8" transform="translate(80 72)" fill="#fff" opacity="0.08"/>
    <rect id="Rectangle_4191" data-name="Rectangle 4191" width="8" height="8" transform="translate(88 32)" fill="#fff" opacity="0.08"/>
    <rect id="Rectangle_4272" data-name="Rectangle 4272" width="8" height="8" transform="translate(64 80)" fill="#fff" opacity="0.08"/>
    <rect id="Rectangle_4182" data-name="Rectangle 4182" width="8" height="8" transform="translate(16 32)" fill="#fff" opacity="0.08"/>
    <rect id="Rectangle_4281" data-name="Rectangle 4281" width="8" height="8" transform="translate(56 88)" fill="#fff" opacity="0.08"/>
    <rect id="Rectangle_4246" data-name="Rectangle 4246" width="8" height="8" transform="translate(88 72)" fill="#fff" opacity="0.08"/>
    <rect id="Rectangle_4161" data-name="Rectangle 4161" width="8" height="8" transform="translate(88 16)" fill="#fff" opacity="0.02"/>
    <rect id="Rectangle_4251" data-name="Rectangle 4251" width="8" height="8" transform="translate(48 72)" fill="#fff" opacity="0.02"/>
    <rect id="Rectangle_4235" data-name="Rectangle 4235" width="8" height="8" transform="translate(48 64)" fill="#fff" opacity="0.02"/>
    <rect id="Rectangle_4239" data-name="Rectangle 4239" width="8" height="8" transform="translate(56 64)" fill="#fff" opacity="0.06"/>
    <rect id="Rectangle_4240" data-name="Rectangle 4240" width="8" height="8" transform="translate(64 64)" fill="#fff" opacity="0.08"/>
    <rect id="Rectangle_4241" data-name="Rectangle 4241" width="8" height="8" transform="translate(72 64)" fill="#fff" opacity="0.02"/>
    <rect id="Rectangle_4242" data-name="Rectangle 4242" width="8" height="8" transform="translate(80 64)" fill="#fff" opacity="0.05"/>
    <rect id="Rectangle_4243" data-name="Rectangle 4243" width="8" height="8" transform="translate(88 64)" fill="#fff" opacity="0.04"/>
    <rect id="Rectangle_4220" data-name="Rectangle 4220" width="8" height="8" transform="translate(8 56)" fill="#fff" opacity="0.08"/>
    <rect id="Rectangle_4291" data-name="Rectangle 4291" width="8" height="8" transform="translate(56 96)" fill="#fff" opacity="0.05"/>
    <rect id="Rectangle_4140" data-name="Rectangle 4140" width="8" height="8" transform="translate(96)" fill="#fff" opacity="0.1"/>
    <rect id="Rectangle_4201" data-name="Rectangle 4201" width="8" height="8" transform="translate(64 40)" fill="#fff" opacity="0.1"/>
    <rect id="Rectangle_4173" data-name="Rectangle 4173" width="8" height="8" transform="translate(48 24)" fill="#fff" opacity="0.1"/>
    <rect id="Rectangle_4273" data-name="Rectangle 4273" width="8" height="8" transform="translate(72 80)" fill="#fff" opacity="0.1"/>
    <rect id="Rectangle_4169" data-name="Rectangle 4169" width="8" height="8" transform="translate(72 24)" fill="#fff" opacity="0.1"/>
    <rect id="Rectangle_4223" data-name="Rectangle 4223" width="8" height="8" transform="translate(32 56)" fill="#fff" opacity="0.1"/>
    <rect id="Rectangle_4289" data-name="Rectangle 4289" width="8" height="8" transform="translate(40 96)" fill="#fff" opacity="0.1"/>
    <rect id="Rectangle_4143" data-name="Rectangle 4143" width="8" height="8" transform="translate(96 8)" fill="#fff" opacity="0.03"/>
    <rect id="Rectangle_4214" data-name="Rectangle 4214" width="8" height="8" transform="translate(64 48)" fill="#fff" opacity="0.03"/>
    <rect id="Rectangle_4162" data-name="Rectangle 4162" width="8" height="8" transform="translate(96 16)" fill="#fff" opacity="0.06"/>
    <rect id="Rectangle_4274" data-name="Rectangle 4274" width="8" height="8" transform="translate(80 80)" fill="#fff" opacity="0.06"/>
    <rect id="Rectangle_4229" data-name="Rectangle 4229" width="8" height="8" transform="translate(80 56)" fill="#fff" opacity="0.06"/>
    <rect id="Rectangle_4269" data-name="Rectangle 4269" width="8" height="8" transform="translate(40 80)" fill="#fff" opacity="0.06"/>
    <rect id="Rectangle_4217" data-name="Rectangle 4217" width="8" height="8" transform="translate(88 48)" fill="#fff" opacity="0.06"/>
    <rect id="Rectangle_4277" data-name="Rectangle 4277" width="8" height="8" transform="translate(24 88)" fill="#fff" opacity="0.06"/>
    <rect id="Rectangle_4186" data-name="Rectangle 4186" width="8" height="8" transform="translate(48 32)" fill="#fff" opacity="0.06"/>
    <rect id="Rectangle_4285" data-name="Rectangle 4285" width="8" height="8" transform="translate(88 88)" fill="#fff" opacity="0.06"/>
  </g>
</svg>
