<svg xmlns="http://www.w3.org/2000/svg" xmlns:xlink="http://www.w3.org/1999/xlink" width="24" height="24" viewBox="0 0 24 24">
  <defs>
    <clipPath id="clip-path">
      <rect id="Rectangle_22" data-name="Rectangle 22" width="24" height="24" transform="translate(200 8)"/>
    </clipPath>
  </defs>
  <g id="behance-white" transform="translate(-200 -8)" clip-path="url(#clip-path)">
    <g id="behance-logo" transform="translate(203 -67.247)">
      <path id="Behance" d="M17.135,82.918H12.381V81.737h4.755v1.181ZM9.216,87.76a3.122,3.122,0,0,1,.46,1.729,3.444,3.444,0,0,1-.524,1.884,3.266,3.266,0,0,1-.835.927,3.227,3.227,0,0,1-1.332.593,8.238,8.238,0,0,1-1.667.16H0V81.247H5.7A3.624,3.624,0,0,1,8.759,82.5a3,3,0,0,1,.54,1.8,2.628,2.628,0,0,1-.546,1.738,2.783,2.783,0,0,1-.9.672,2.621,2.621,0,0,1,1.363,1.05ZM2.723,85.9h2.5a2.367,2.367,0,0,0,1.248-.293,1.116,1.116,0,0,0,.479-1.038,1.057,1.057,0,0,0-.634-1.089,4.46,4.46,0,0,0-1.4-.18H2.72Zm4.466,3.419a1.266,1.266,0,0,0-.751-1.265,2.959,2.959,0,0,0-1.181-.2H2.723V91H5.218a2.772,2.772,0,0,0,1.2-.207,1.488,1.488,0,0,0,.77-1.472ZM18.9,87.4a11.1,11.1,0,0,1,.073,1.679H12.815a2.021,2.021,0,0,0,.884,1.784,2.226,2.226,0,0,0,1.219.317,1.717,1.717,0,0,0,1.681-.968h2.257a2.749,2.749,0,0,1-.819,1.528,4.108,4.108,0,0,1-3.18,1.235,4.616,4.616,0,0,1-2.979-1.041,4.11,4.11,0,0,1-1.289-3.388,4.579,4.579,0,0,1,1.164-3.372A4.078,4.078,0,0,1,14.776,84a4.821,4.821,0,0,1,1.989.4,3.425,3.425,0,0,1,1.46,1.252A4.174,4.174,0,0,1,18.9,87.4Zm-2.221.22a1.847,1.847,0,0,0-.591-1.336,1.927,1.927,0,0,0-1.31-.458,1.753,1.753,0,0,0-1.319.485,2.279,2.279,0,0,0-.589,1.309h3.81Z"/>
    </g>
  </g>
</svg>
