<svg id="mail-white" xmlns="http://www.w3.org/2000/svg" width="24" height="24" viewBox="0 0 24 24">
  <path id="Path_245" data-name="Path 245" d="M10.515,2a8.515,8.515,0,1,0,0,17.029h4.257v-1.7H10.515A6.9,6.9,0,0,1,3.7,10.515,6.9,6.9,0,0,1,10.515,3.7a6.9,6.9,0,0,1,6.812,6.812v1.218a1.376,1.376,0,0,1-1.277,1.337,1.376,1.376,0,0,1-1.277-1.337V10.515a4.259,4.259,0,1,0-1.243,3.006,3.153,3.153,0,0,0,2.52,1.252,2.991,2.991,0,0,0,2.98-3.04V10.515A8.518,8.518,0,0,0,10.515,2Zm0,11.069a2.554,2.554,0,1,1,2.554-2.554A2.551,2.551,0,0,1,10.515,13.069Z" transform="translate(1.485 1.485)" fill="rgba(255,255,255,0.9)"/>
  <path id="Path_246" data-name="Path 246" d="M0,0H24V24H0Z" fill="none"/>
</svg>
