<svg id="baseline-phone-24px" xmlns="http://www.w3.org/2000/svg" width="24" height="24" viewBox="0 0 24 24">
  <path id="Path_32" data-name="Path 32" d="M0,0H24V24H0Z" fill="none"/>
  <path id="Path_33" data-name="Path 33" d="M6.121,9.716A13.06,13.06,0,0,0,11.8,15.4l1.9-1.9a.857.857,0,0,1,.879-.207,9.834,9.834,0,0,0,3.078.491.865.865,0,0,1,.862.862v3.009a.865.865,0,0,1-.862.862A14.655,14.655,0,0,1,3,3.862.865.865,0,0,1,3.862,3H6.88a.865.865,0,0,1,.862.862A9.794,9.794,0,0,0,8.233,6.94a.865.865,0,0,1-.216.879Z" transform="translate(1.241 1.241)" fill="#fff"/>
</svg>
