<svg xmlns="http://www.w3.org/2000/svg" xmlns:xlink="http://www.w3.org/1999/xlink" width="24" height="24" viewBox="0 0 24 24">
  <defs>
    <clipPath id="clip-path">
      <rect id="Rectangle_23" data-name="Rectangle 23" width="24" height="24" transform="translate(168 8)" fill="#888"/>
    </clipPath>
  </defs>
  <g id="vk-white" transform="translate(-168 -8)" clip-path="url(#clip-path)">
    <g id="vk-social-network-logo" transform="translate(170 -102.748)">
      <path id="Path_4" data-name="Path 4" d="M18.96,127.57a1.311,1.311,0,0,0-.065-.124,9.879,9.879,0,0,0-1.9-2.193l-.02-.02-.01-.01-.01-.01h-.01q-.635-.605-.8-.814a.764.764,0,0,1-.139-.8,7.494,7.494,0,0,1,.893-1.3q.407-.526.645-.844,1.717-2.283,1.489-2.918l-.059-.1a.581.581,0,0,0-.307-.164,1.562,1.562,0,0,0-.635-.025l-2.858.02a.371.371,0,0,0-.2.005l-.129.03-.05.025-.039.03a.441.441,0,0,0-.109.1.681.681,0,0,0-.1.174,16.2,16.2,0,0,1-1.062,2.233q-.367.615-.675,1.067a5.133,5.133,0,0,1-.516.665,3.6,3.6,0,0,1-.377.342q-.169.129-.258.109l-.169-.04a.66.66,0,0,1-.223-.243,1.089,1.089,0,0,1-.114-.387q-.03-.233-.035-.4t.005-.476q.01-.308.01-.417,0-.377.015-.819t.025-.7q.01-.258.01-.546a2.293,2.293,0,0,0-.035-.452,1.545,1.545,0,0,0-.1-.318.535.535,0,0,0-.2-.238,1.147,1.147,0,0,0-.332-.134,6.6,6.6,0,0,0-1.34-.129,6.511,6.511,0,0,0-2.372.238,1.337,1.337,0,0,0-.377.3q-.179.218-.05.238a1.217,1.217,0,0,1,.844.427l.06.119a1.9,1.9,0,0,1,.139.457,4.606,4.606,0,0,1,.089.724,7.725,7.725,0,0,1,0,1.241q-.05.516-.094.8a1.609,1.609,0,0,1-.134.466,1.97,1.97,0,0,1-.119.218.171.171,0,0,1-.05.05.743.743,0,0,1-.268.05.629.629,0,0,1-.337-.139,2.38,2.38,0,0,1-.412-.382,5.107,5.107,0,0,1-.481-.68q-.268-.437-.556-1.032l-.159-.288q-.149-.278-.407-.809t-.457-1.027a.654.654,0,0,0-.238-.318l-.05-.03a.679.679,0,0,0-.159-.084,1.053,1.053,0,0,0-.228-.064l-2.719.02a.691.691,0,0,0-.566.189l-.04.059a.321.321,0,0,0-.03.159.79.79,0,0,0,.06.268q.6,1.4,1.3,2.7t1.216,2.094q.516.794,1.052,1.5t.71.9q.174.2.273.3l.248.238a5.885,5.885,0,0,0,.7.571,11.938,11.938,0,0,0,1.022.655,5.547,5.547,0,0,0,1.305.526,4.513,4.513,0,0,0,1.449.164H10.47a.79.79,0,0,0,.526-.218l.039-.05a.658.658,0,0,0,.074-.183,1.008,1.008,0,0,0,.035-.273,3.27,3.27,0,0,1,.064-.769,2.022,2.022,0,0,1,.169-.516,1.269,1.269,0,0,1,.213-.293.862.862,0,0,1,.169-.144.646.646,0,0,1,.079-.035.63.63,0,0,1,.561.154,3.3,3.3,0,0,1,.605.576q.283.343.68.769a4.67,4.67,0,0,0,.695.635l.2.119a2.416,2.416,0,0,0,.516.218,1.112,1.112,0,0,0,.556.05l2.541-.04a1.151,1.151,0,0,0,.586-.124.492.492,0,0,0,.248-.273.769.769,0,0,0,.005-.338A1.246,1.246,0,0,0,18.96,127.57Z" transform="translate(0 0)" fill="#fff"/>
    </g>
  </g>
</svg>
