<svg xmlns="http://www.w3.org/2000/svg" xmlns:xlink="http://www.w3.org/1999/xlink" width="24" height="24" viewBox="0 0 24 24">
  <defs>
    <clipPath id="clip-path">
      <rect id="Rectangle_20" data-name="Rectangle 20" width="24" height="24" transform="translate(264 8)" fill="#888"/>
    </clipPath>
  </defs>
  <g id="whatsapp-white" transform="translate(-264 -8)" clip-path="url(#clip-path)">
    <g id="whatsapp-logo" transform="translate(268.533 12.533)">
      <path id="WhatsApp" d="M14.852,7.235A7.3,7.3,0,0,1,4.037,13.569L0,14.852,1.316,10.97A7.159,7.159,0,0,1,.27,7.235a7.291,7.291,0,0,1,14.582,0ZM7.561,1.152a6.113,6.113,0,0,0-6.13,6.083A6.019,6.019,0,0,0,2.6,10.8L1.833,13.06l2.356-.749a6.136,6.136,0,0,0,9.5-5.076A6.114,6.114,0,0,0,7.561,1.152ZM11.243,8.9c-.045-.074-.164-.118-.343-.207s-1.058-.518-1.221-.577-.283-.089-.4.089-.462.577-.566.7-.208.134-.387.045a4.892,4.892,0,0,1-1.437-.88,5.346,5.346,0,0,1-.994-1.228c-.1-.177-.011-.273.078-.362s.179-.207.268-.311a1.189,1.189,0,0,0,.179-.3A.323.323,0,0,0,6.4,5.559C6.358,5.47,6,4.6,5.851,4.243s-.3-.3-.4-.3-.223-.015-.343-.015a.66.66,0,0,0-.477.222A1.983,1.983,0,0,0,4,5.633a3.431,3.431,0,0,0,.73,1.834,7.306,7.306,0,0,0,3.053,2.677c1.817.71,1.817.473,2.145.443a1.808,1.808,0,0,0,1.207-.843A1.478,1.478,0,0,0,11.243,8.9Z" transform="translate(0 0)" fill="#fff"/>
    </g>
  </g>
</svg>
