<svg xmlns="http://www.w3.org/2000/svg" xmlns:xlink="http://www.w3.org/1999/xlink" width="336" height="152" viewBox="0 0 336 152">
  <defs>
    <clipPath id="clip-path">
      <rect id="Rectangle_88" data-name="Rectangle 88" width="336" height="152" transform="translate(72 72)" fill="#fff" stroke="#707070" stroke-width="1"/>
    </clipPath>
    <filter id="Subtraction_1" x="39" y="10" width="186" height="121.999" filterUnits="userSpaceOnUse">
      <feOffset dy="3" input="SourceAlpha"/>
      <feGaussianBlur stdDeviation="3" result="blur"/>
      <feFlood flood-opacity="0.161"/>
      <feComposite operator="in" in2="blur"/>
      <feComposite in="SourceGraphic"/>
    </filter>
    <filter id="Subtraction_2" x="175" y="50" width="138" height="90.002" filterUnits="userSpaceOnUse">
      <feOffset dy="3" input="SourceAlpha"/>
      <feGaussianBlur stdDeviation="3" result="blur-2"/>
      <feFlood flood-opacity="0.161"/>
      <feComposite operator="in" in2="blur-2"/>
      <feComposite in="SourceGraphic"/>
    </filter>
    <filter id="_3-2" x="31" y="58" width="74" height="90" filterUnits="userSpaceOnUse">
      <feOffset dy="3" input="SourceAlpha"/>
      <feGaussianBlur stdDeviation="3" result="blur-3"/>
      <feFlood flood-opacity="0.161"/>
      <feComposite operator="in" in2="blur-3"/>
      <feComposite in="SourceGraphic"/>
    </filter>
    <filter id="_4-2" x="7" y="74" width="58.001" height="74" filterUnits="userSpaceOnUse">
      <feOffset dy="3" input="SourceAlpha"/>
      <feGaussianBlur stdDeviation="3" result="blur-4"/>
      <feFlood flood-opacity="0.161"/>
      <feComposite operator="in" in2="blur-4"/>
      <feComposite in="SourceGraphic"/>
    </filter>
  </defs>
  <g id="ustr" transform="translate(-72 -72)" clip-path="url(#clip-path)">
    <g id="ustr-2" data-name="ustr">
      <g id="Group_11" data-name="Group 11" transform="translate(56 -392)">
        <rect id="Rectangle_54" data-name="Rectangle 54" width="152" height="88" rx="3" transform="translate(72 488)" fill="#00a8e8"/>
        <g id="Group_4" data-name="Group 4" transform="translate(-24 -136)">
          <g transform="matrix(1, 0, 0, 1, 40, 600)" filter="url(#Subtraction_1)">
            <path id="Subtraction_1-2" data-name="Subtraction 1" d="M8215-1129H8057a5.006,5.006,0,0,1-5-5v-94a5.006,5.006,0,0,1,5-5h158a5.006,5.006,0,0,1,5,5v94A5.006,5.006,0,0,1,8215-1129Zm-152-96a3,3,0,0,0-3,3v82a3,3,0,0,0,3,3h146a3,3,0,0,0,3-3v-82a3,3,0,0,0-3-3Z" transform="translate(-8004 1249)" fill="#fff"/>
          </g>
          <rect id="Rectangle_3" data-name="Rectangle 3" width="24" height="8" transform="translate(160 720)" fill="#fff"/>
          <rect id="Rectangle_4" data-name="Rectangle 4" width="56" height="8" rx="4" transform="translate(144 728)" fill="#fff"/>
        </g>
      </g>
      <g id="Group_13" data-name="Group 13" transform="translate(-56 -392)">
        <path id="_2-3" data-name="2-3" d="M3,0h98a3,3,0,0,1,3,3V64a0,0,0,0,1,0,0H0a0,0,0,0,1,0,0V3A3,3,0,0,1,3,0Z" transform="translate(320 528)" fill="#00a8e8"/>
        <g id="_2-2" data-name="2-2" transform="translate(24 -136)">
          <g transform="matrix(1, 0, 0, 1, 104, 600)" filter="url(#Subtraction_2)">
            <path id="Subtraction_2-2" data-name="Subtraction 2" d="M8172-1161h-8v-61a3,3,0,0,0-3-3h-98a3,3,0,0,0-3,3v61h-8v-67a5.006,5.006,0,0,1,5-5h110a5.006,5.006,0,0,1,5,5v67Z" transform="translate(-7868 1289)" fill="#fff"/>
          </g>
          <rect id="Rectangle_6" data-name="Rectangle 6" width="152" height="8" rx="4" transform="translate(272 728)" fill="#fff"/>
        </g>
      </g>
      <g id="Group_15" data-name="Group 15" transform="translate(-400 -392)">
        <rect id="_3-3" data-name="3-3" width="48" height="56" rx="3" transform="translate(516 536)" fill="#00a8e8"/>
        <g transform="matrix(1, 0, 0, 1, 472, 464)" filter="url(#_3-2)">
          <path id="_3-2-2" data-name="3-2" d="M51,72H5a5.005,5.005,0,0,1-5-5V5A5.006,5.006,0,0,1,5,0H51a5.006,5.006,0,0,1,5,5V67A5.006,5.006,0,0,1,51,72ZM7,8a3,3,0,0,0-3,3V61a3,3,0,0,0,3,3H49a3,3,0,0,0,3-3V11a3,3,0,0,0-3-3Z" transform="translate(40 64)" fill="#fff"/>
        </g>
      </g>
      <g id="Group_17" data-name="Group 17" transform="translate(-544 -392)">
        <rect id="_4-3" data-name="4-3" width="32" height="48" rx="3" transform="translate(636 548)" fill="#00a8e8"/>
        <g transform="matrix(1, 0, 0, 1, 616, 464)" filter="url(#_4-2)">
          <path id="_4-2-2" data-name="4-2" d="M8087-1177h-30a5.006,5.006,0,0,1-5-5v-46a5.006,5.006,0,0,1,5-5h30a5.005,5.005,0,0,1,5,5v46A5.005,5.005,0,0,1,8087-1177Zm-28-52a3,3,0,0,0-3,3v42a3,3,0,0,0,3,3h26a3,3,0,0,0,3-3v-42a3,3,0,0,0-3-3Z" transform="translate(-8036 1313)" fill="#fff"/>
        </g>
      </g>
    </g>
  </g>
</svg>
